<?xml version="1.0" standalone="no"?>
<!DOCTYPE svg PUBLIC "-//W3C//DTD SVG 20010904//EN"
 "http://www.w3.org/TR/2001/REC-SVG-20010904/DTD/svg10.dtd">
<svg version="1.0" xmlns="http://www.w3.org/2000/svg"
 width="8000.000000pt" height="8000.000000pt" viewBox="0 0 8000.000000 8000.000000"
 preserveAspectRatio="xMidYMid meet">

<g transform="translate(0.000000,8000.000000) scale(0.100000,-0.100000)"
fill="#000000" stroke="none">
<path d="M13995 56344 c-1968 -56 -1948 -51 -200 -52 l1550 0 -75 25 c-100 32
-244 53 -360 52 -52 -1 -464 -12 -915 -25z"/>
<path d="M16823 50006 c-3 -6 -3 -8 2 -4 4 4 13 3 20 -2 8 -7 12 -5 12 3 0 16
-25 18 -34 3z"/>
<path d="M17126 50007 c-16 -12 -16 -13 2 -13 10 0 19 6 19 13 0 7 -1 13 -2
13 -1 0 -9 -6 -19 -13z"/>
<path d="M18000 50009 c0 -5 5 -7 10 -4 6 3 10 8 10 11 0 2 -4 4 -10 4 -5 0
-10 -5 -10 -11z"/>
<path d="M14947 50004 c-8 -8 3 -34 15 -34 7 0 6 5 -1 13 -6 8 -8 17 -4 20 3
4 4 7 1 7 -2 0 -7 -3 -11 -6z"/>
<path d="M16330 50000 c0 -5 5 -10 10 -10 6 0 10 5 10 10 0 6 -4 10 -10 10 -5
0 -10 -4 -10 -10z"/>
<path d="M17290 49995 c-7 -9 -8 -15 -2 -15 5 0 12 7 16 15 3 8 4 15 2 15 -2
0 -9 -7 -16 -15z"/>
<path d="M17822 49984 c-7 -14 -17 -22 -22 -19 -15 9 -12 -4 4 -21 18 -18 22
-18 29 0 4 11 1 13 -10 9 -13 -5 -13 -2 2 21 10 15 16 29 13 31 -3 3 -10 -6
-16 -21z"/>
<path d="M19445 49999 c-4 -6 -4 -13 -1 -16 3 -4 6 -1 6 6 0 7 5 9 12 5 7 -4
8 -3 4 4 -9 15 -13 15 -21 1z"/>
<path d="M19610 49999 c0 -5 5 -7 10 -4 6 3 10 8 10 11 0 2 -4 4 -10 4 -5 0
-10 -5 -10 -11z"/>
<path d="M14832 49984 c10 -10 20 -15 24 -12 3 4 -5 12 -18 18 -22 12 -22 12
-6 -6z"/>
<path d="M16950 49989 c0 -5 5 -7 10 -4 6 3 10 8 10 11 0 2 -4 4 -10 4 -5 0
-10 -5 -10 -11z"/>
<path d="M16985 49990 c-3 -5 -1 -10 4 -10 6 0 11 5 11 10 0 6 -2 10 -4 10 -3
0 -8 -4 -11 -10z"/>
<path d="M17438 49988 c5 -5 16 -8 23 -6 8 3 3 7 -10 11 -17 4 -21 3 -13 -5z"/>
<path d="M17521 49984 c0 -11 3 -14 6 -6 3 7 2 16 -1 19 -3 4 -6 -2 -5 -13z"/>
<path d="M18105 49990 c-3 -5 -1 -10 4 -10 6 0 11 5 11 10 0 6 -2 10 -4 10 -3
0 -8 -4 -11 -10z"/>
<path d="M14733 49975 c0 -8 6 -16 14 -19 11 -4 11 -1 3 14 -13 24 -17 25 -17
5z"/>
<path d="M14778 49983 c7 -3 16 -2 19 1 4 3 -2 6 -13 5 -11 0 -14 -3 -6 -6z"/>
<path d="M16466 49975 c-11 -8 -15 -15 -9 -15 7 0 15 5 18 10 4 6 11 7 17 4 7
-4 8 -2 4 4 -9 14 -7 15 -30 -3z"/>
<path d="M16638 49984 c-12 -11 -10 -21 6 -27 8 -3 20 2 28 11 12 15 11 16 -4
4 -14 -11 -17 -10 -20 3 -1 9 -6 13 -10 9z"/>
<path d="M16735 49981 c-6 -11 13 -26 22 -17 4 3 1 6 -6 6 -7 0 -9 5 -6 10 3
6 4 10 1 10 -3 0 -7 -4 -11 -9z"/>
<path d="M17033 49975 c-3 -9 -3 -19 1 -22 7 -7 -35 -39 -46 -35 -5 1 -7 -4
-5 -10 1 -7 -8 -14 -20 -16 -23 -3 -27 4 -24 40 1 9 -2 19 -7 22 -5 3 -8 -7
-7 -23 1 -18 -4 -32 -17 -40 -16 -10 -19 -9 -16 3 2 8 -1 15 -7 14 -5 0 -8 -5
-6 -11 2 -7 4 -17 4 -24 0 -7 6 -14 13 -17 15 -6 28 10 20 23 -4 5 12 8 36 6
44 -3 71 3 64 14 -3 4 -1 13 5 21 7 13 9 12 9 -2 0 -11 5 -15 15 -12 12 5 13
10 4 20 -8 9 -8 14 -1 14 6 0 14 -4 17 -10 3 -5 10 -10 16 -10 5 0 9 5 9 10 0
6 -6 10 -14 10 -7 0 -19 7 -27 16 -10 13 -10 17 2 25 10 6 11 9 1 9 -7 0 -15
-7 -19 -15z"/>
<path d="M17714 49982 c3 -5 0 -13 -6 -15 -8 -3 -6 -6 5 -6 19 -1 23 14 5 25
-6 4 -8 3 -4 -4z"/>
<path d="M18660 49980 c0 -5 5 -10 11 -10 5 0 7 5 4 10 -3 6 -8 10 -11 10 -2
0 -4 -4 -4 -10z"/>
<path d="M18803 49975 c7 -7 18 -10 24 -8 21 8 15 18 -11 19 -20 2 -22 -1 -13
-11z"/>
<path d="M19110 49984 c0 -10 36 -54 45 -54 13 0 3 32 -12 37 -10 4 -21 11
-25 17 -5 8 -8 8 -8 0z"/>
<path d="M19225 49980 c-4 -6 -11 -7 -17 -4 -7 4 -8 2 -4 -5 4 -6 12 -9 17 -6
5 4 9 1 9 -4 0 -6 8 -11 18 -11 16 1 16 1 -1 11 -9 6 -15 14 -12 20 4 5 4 9 1
9 -3 0 -8 -5 -11 -10z"/>
<path d="M19312 49981 c-11 -7 -10 -9 3 -14 9 -4 13 -3 10 2 -3 5 3 12 12 14
13 3 14 5 3 6 -8 0 -21 -3 -28 -8z"/>
<path d="M15127 49961 c-3 -13 -1 -18 9 -14 7 2 10 11 7 19 -7 19 -10 18 -16
-5z"/>
<path d="M15490 49966 c14 -18 13 -19 -4 -13 -16 6 -17 5 -7 -7 9 -10 9 -16 1
-21 -6 -4 -9 -14 -5 -23 3 -9 3 -13 -1 -10 -4 4 -15 3 -25 -3 -21 -11 -24 -2
-9 21 8 12 10 12 10 1 0 -8 3 -11 6 -8 4 4 1 13 -6 22 -7 9 -10 18 -7 22 4 3
9 -2 13 -11 3 -9 10 -13 15 -10 10 6 -14 34 -29 34 -6 0 -13 -7 -16 -16 -3 -8
-10 -13 -15 -9 -6 3 -8 12 -4 20 3 8 1 15 -5 15 -15 0 -8 -26 13 -50 18 -20
18 -20 -6 -18 -20 3 -24 -1 -22 -19 2 -13 -1 -23 -6 -23 -13 0 -45 40 -37 47
4 4 10 2 14 -4 6 -9 11 -7 19 7 11 17 10 18 -13 14 -13 -2 -33 0 -44 6 -14 7
-20 7 -20 0 0 -5 7 -10 16 -10 11 0 13 -6 9 -19 -4 -14 0 -21 12 -24 10 -3 6
-4 -9 -4 -21 1 -27 5 -23 18 3 10 0 16 -10 16 -18 0 -18 -2 -5 -27 7 -13 6
-19 -5 -24 -8 -3 -12 -12 -9 -20 3 -8 1 -23 -4 -32 -9 -16 -10 -15 -16 4 -4
12 -12 22 -17 22 -5 0 -8 10 -8 23 1 16 2 18 6 5 2 -10 9 -18 14 -18 5 0 9 -8
10 -17 0 -10 3 -13 5 -6 3 6 -3 24 -13 39 -17 26 -17 28 0 21 9 -3 17 -3 17 2
0 5 -9 11 -20 14 -11 3 -18 2 -16 -1 2 -4 -2 -13 -10 -20 -8 -7 -14 -10 -14
-6 0 3 -6 1 -14 -5 -8 -7 -17 -8 -20 -3 -6 10 9 26 34 35 10 3 6 6 -10 7 -14
1 -28 2 -32 1 -8 -1 -12 15 -9 33 1 5 -5 4 -13 -4 -9 -7 -16 -18 -16 -24 0 -7
4 -6 9 2 6 11 10 10 15 -4 4 -10 2 -20 -4 -24 -6 -4 -10 -13 -8 -20 2 -8 -3
-15 -9 -16 -7 -1 -14 -2 -15 -4 -10 -7 -37 -7 -32 1 3 5 12 9 19 9 9 0 12 6 9
15 -5 11 -10 13 -19 5 -9 -8 -14 -6 -19 5 -3 9 0 15 9 15 8 0 15 9 15 20 0 11
-4 20 -10 20 -5 0 -7 -7 -4 -15 4 -10 0 -15 -16 -15 -11 0 -18 -4 -15 -10 3
-5 2 -10 -4 -10 -6 0 -7 -7 -4 -17 4 -11 3 -14 -5 -9 -7 4 -10 18 -8 31 3 14
-1 26 -9 29 -9 3 -12 0 -9 -9 4 -9 0 -12 -14 -8 -11 2 -23 0 -26 -5 -3 -6 2
-8 13 -5 11 3 21 -2 25 -12 3 -9 2 -14 -4 -10 -6 4 -23 9 -38 11 -15 3 -31 9
-36 15 -6 5 -18 9 -29 9 -10 0 -16 4 -13 8 3 5 29 7 58 6 29 -1 42 0 28 2 -14
3 -32 8 -40 11 -8 3 -19 5 -24 4 -4 -1 -15 4 -24 11 -12 10 -14 10 -8 0 4 -7
1 -15 -8 -18 -16 -6 -23 -25 -8 -22 13 2 47 -15 55 -29 5 -7 12 -11 18 -8 5 4
9 -2 9 -11 0 -16 -1 -16 -20 1 -19 18 -20 17 -20 -6 0 -18 -2 -21 -9 -9 -6 8
-7 18 -5 22 8 12 -4 10 -39 -8 -21 -11 -28 -12 -19 -3 13 15 17 33 4 25 -17
-11 -5 37 13 50 17 13 17 14 2 14 -10 0 -20 -6 -23 -14 -7 -18 -42 -27 -48
-12 -2 6 -4 -1 -3 -16 1 -18 6 -27 16 -25 7 1 16 -4 19 -12 3 -10 0 -12 -12
-8 -10 4 -16 1 -16 -8 0 -7 -5 -17 -12 -21 -6 -4 -8 -3 -5 3 4 6 -3 13 -14 16
-16 4 -19 2 -15 -11 3 -10 -1 -8 -10 6 -9 12 -25 22 -36 22 -12 0 -17 4 -12
12 4 7 3 8 -4 4 -7 -4 -12 -1 -12 7 0 22 28 29 32 9 3 -14 5 -13 10 4 3 13 -2
31 -13 45 l-18 24 3 -28 c3 -25 1 -28 -19 -25 -19 4 -22 1 -20 -20 1 -13 8
-28 16 -32 7 -5 14 -16 15 -25 3 -22 12 -30 21 -21 4 4 1 11 -6 15 -7 5 -9 11
-4 14 5 3 13 3 18 -1 11 -8 16 -42 6 -39 -3 1 -8 0 -11 -4 -3 -3 305 -536 684
-1185 2564 -4388 8191 -14008 8244 -14093 323 -524 923 -948 1432 -1012 58 -7
479 1 1592 30 1672 44 1690 45 1767 65 133 36 251 128 304 236 31 63 57 173
57 242 0 149 -55 343 -149 523 -31 60 -1384 2378 -3006 5150 -4927 8423 -5886
10060 -5896 10063 -5 2 -6 9 -2 14 4 7 -2 9 -15 6 -12 -4 -25 -2 -28 3 -3 5 2
9 10 9 18 0 20 8 8 28 -6 9 -12 6 -21 -12 -8 -13 -10 -30 -6 -37 5 -8 4 -10
-3 -5 -7 4 -12 13 -12 21 0 9 -10 12 -32 9 -33 -5 -33 -5 -8 9 15 8 30 10 37
5 6 -5 14 -5 16 -1 8 13 -9 36 -21 29 -6 -4 -16 0 -23 7 -11 11 -16 10 -30 -4
-13 -13 -17 -28 -13 -56 4 -31 3 -35 -6 -20 -6 9 -19 17 -28 18 -11 1 -8 4 8
9 14 4 19 8 12 9 -7 1 -10 6 -7 11 3 6 1 10 -4 10 -6 0 -11 9 -11 20 0 11 6
20 13 20 9 0 8 3 -2 9 -7 5 -11 13 -7 19 3 6 -1 9 -11 8 -23 -4 -29 -26 -8
-26 14 0 15 -3 5 -15 -17 -20 -41 -20 -33 1 5 14 3 14 -15 -2 -24 -20 -21 -34
7 -27 13 3 20 -2 24 -19 10 -37 8 -44 -14 -44 -19 0 -19 1 -3 13 19 14 12 28
-14 28 -9 0 -20 -9 -24 -20 -6 -17 -7 -17 -6 5 1 51 -2 55 -19 30 -12 -17 -13
-25 -5 -28 7 -2 11 -13 11 -25 -1 -18 -2 -19 -6 -4 -3 11 -11 16 -18 13 -9 -3
-12 0 -8 10 3 7 1 14 -5 14 -6 0 -13 -6 -15 -12 -4 -10 -6 -10 -6 0 -1 7 -5
11 -10 7 -6 -3 -8 3 -6 13 5 28 -8 42 -33 35 -22 -5 -31 -23 -12 -23 6 0 10
-5 10 -11 0 -5 -6 -7 -12 -4 -7 4 -4 -1 6 -9 11 -9 16 -19 13 -23 -4 -3 -7 -3
-7 1 0 4 -10 1 -22 -5 -20 -11 -21 -10 -11 3 7 8 9 18 5 22 -7 7 -8 11 -11 37
0 5 -6 7 -12 3 -8 -4 -7 -9 2 -15 12 -7 11 -9 -1 -10 -8 0 -22 -2 -30 -4 -10
-2 -17 6 -18 21 -1 13 3 24 9 24 5 0 7 5 4 10 -14 22 -32 10 -29 -19 3 -22 -3
-33 -23 -46 -17 -11 -23 -12 -17 -4 14 23 14 46 1 58 -11 8 -13 4 -9 -19 3
-19 0 -30 -8 -30 -7 0 -10 7 -6 15 3 8 1 15 -5 15 -6 0 -8 4 -5 9 3 5 -2 15
-11 22 -15 12 -16 11 -11 -8 5 -19 2 -23 -18 -23 -16 0 -24 -6 -24 -17 0 -11
3 -14 8 -7 4 6 17 13 30 16 17 5 22 2 22 -13 0 -10 4 -19 9 -19 5 0 11 -7 15
-15 5 -13 2 -14 -15 -5 -11 6 -23 18 -26 26 -3 8 -9 14 -15 14 -5 0 -7 -4 -4
-9 15 -23 -24 -2 -51 28 -22 26 -32 31 -38 21 -5 -8 -4 -11 3 -6 6 3 13 2 16
-3 4 -5 2 -12 -3 -16 -14 -8 -49 33 -46 53 1 9 0 11 -2 5 -3 -7 -9 -13 -14
-13 -6 0 -8 4 -4 9 3 5 0 13 -7 17 -7 4 -10 4 -6 -1 4 -4 2 -15 -5 -23 -6 -9
-7 -13 -2 -10 6 4 17 3 25 -3 11 -6 12 -9 2 -9 -7 0 -10 -5 -7 -10 4 -6 10 -8
14 -6 4 3 7 -12 8 -32 0 -21 -1 -27 -4 -14 -6 28 -40 66 -45 50 -5 -13 -48
-19 -48 -6 0 22 -42 -6 -53 -34 -3 -9 -9 -7 -21 7 -21 27 -20 35 4 35 12 0 17
5 14 14 -3 7 -17 14 -31 14 -17 0 -21 -3 -12 -9 7 -4 11 -11 8 -14 -9 -8 -40
6 -34 15 7 11 -29 7 -37 -5 -4 -5 -2 -15 4 -22 8 -9 4 -15 -16 -23 -14 -5 -26
-12 -26 -15 0 -2 11 0 25 5 22 8 25 7 25 -11 0 -16 -6 -19 -27 -17 -16 2 -31
7 -35 12 -10 14 -51 18 -42 4 5 -7 3 -8 -5 -4 -9 6 -8 13 6 26 15 14 19 15 26
3 5 -7 13 -10 19 -7 7 5 5 12 -7 21 -13 8 -14 13 -5 13 7 0 10 3 7 7 -4 3 -16
-2 -26 -11 -25 -22 -87 -29 -104 -11 -16 15 -51 0 -41 -17 4 -6 2 -8 -4 -4 -6
3 -14 1 -19 -6 -9 -14 -53 -19 -53 -6 0 4 5 8 11 8 7 0 18 8 26 18 8 9 12 11
8 5 -3 -7 -1 -13 4 -13 6 0 12 3 12 8 6 36 4 49 -8 49 -9 0 -10 -4 -3 -11 15
-15 12 -26 -6 -19 -9 3 -20 0 -25 -8 -6 -10 -9 -8 -9 9 0 15 4 21 13 17 6 -4
5 -1 -4 7 -9 7 -14 18 -12 25 2 6 0 14 -5 17 -5 3 -8 -16 -6 -44 2 -38 -1 -50
-12 -50 -8 0 -14 7 -14 15 0 9 -6 12 -17 8 -11 -4 -14 -3 -9 6 4 6 16 9 27 6
21 -7 24 2 9 25 -8 12 -10 12 -10 1 0 -11 -3 -11 -15 -1 -13 11 -14 10 -10 -2
3 -8 -1 -20 -8 -27 -12 -9 -18 -8 -30 4 -9 8 -21 15 -27 15 -6 0 -8 5 -4 13 5
8 2 8 -9 -2 -18 -14 -22 -22 -9 -19 4 0 15 -2 25 -7 17 -7 17 -8 0 -22 -10 -8
-12 -12 -5 -8 21 11 13 -9 -9 -24 -20 -12 -21 -11 -17 11 4 20 0 24 -21 26
-24 1 -24 0 -8 -12 23 -17 22 -21 -10 -41 -16 -10 -25 -14 -21 -10 4 4 -3 16
-15 27 -12 11 -16 16 -8 12 9 -5 12 -3 7 4 -10 16 -26 15 -26 -1 0 -15 -29
-19 -45 -6 -6 4 -17 4 -24 -1 -8 -4 -20 -6 -27 -3 -7 2 -15 -5 -19 -16 -3 -12
-11 -21 -16 -21 -6 0 -8 4 -5 9 3 5 -1 11 -9 15 -8 3 -15 1 -15 -4 0 -6 -4
-10 -8 -10 -5 0 -9 7 -9 16 0 12 8 15 29 12 30 -5 33 -1 18 22 -7 11 -10 11
-10 2 0 -9 -10 -12 -29 -9 -35 6 -43 0 -31 -22 6 -13 4 -17 -10 -17 -14 0 -16
3 -8 13 7 8 7 13 0 13 -5 0 -15 -6 -21 -14 -7 -8 -26 -19 -42 -25 -27 -9 -31
-8 -40 15 l-9 26 -18 -23 c-15 -17 -19 -18 -19 -6 0 9 5 13 10 10 6 -4 8 1 4
12 -6 14 -3 16 13 12 13 -3 20 0 20 8 0 8 -8 12 -20 10 -13 -2 -20 2 -20 11 0
8 -4 14 -8 14 -16 0 -30 -23 -25 -38 4 -9 2 -13 -4 -9 -16 10 -22 -14 -10 -38
9 -18 8 -18 -6 -7 -9 8 -21 11 -27 7 -5 -3 -10 -2 -10 3 0 6 7 12 15 16 8 3
12 12 9 21 -3 8 -1 15 5 15 6 0 11 4 11 10 0 5 -7 7 -15 4 -8 -4 -15 -12 -15
-19 0 -8 -9 -13 -19 -12 -11 0 -19 4 -19 7 1 17 -3 30 -12 30 -5 0 -7 -7 -4
-15 8 -21 -8 -19 -33 4 -12 11 -24 17 -27 14 -3 -4 -6 3 -6 14 0 30 -21 44
-42 29 -10 -7 -14 -16 -10 -20 4 -4 0 -13 -8 -19 -8 -7 -16 -23 -17 -37 -2
-14 -4 -37 -5 -52 -2 -19 -6 -24 -15 -17 -11 10 -10 45 2 57 2 3 0 11 -6 19
-9 9 -8 13 0 13 6 0 10 6 9 13 -2 6 5 11 14 9 12 -2 16 2 12 12 -6 15 -39 15
-38 0 0 -5 -5 -15 -12 -22 -7 -7 -10 -20 -7 -30 6 -14 4 -15 -9 -4 -11 9 -18
10 -23 2 -3 -6 -11 -8 -16 -5 -5 4 -9 1 -9 -4 0 -6 4 -11 9 -11 4 0 6 -11 3
-25 -3 -21 -7 -23 -23 -14 -11 5 -19 15 -18 22 0 9 2 9 6 0 7 -19 22 -15 18 5
-2 9 -4 21 -4 25 -1 5 -5 6 -9 3 -4 -2 -14 -1 -22 4 -11 7 -11 11 -1 24 11 13
9 15 -17 13 -17 -1 -28 -5 -25 -9 2 -5 -1 -8 -6 -8 -6 0 -11 -7 -11 -16 0 -14
1 -14 16 0 19 20 24 20 24 1 0 -8 -3 -14 -7 -14 -19 3 -23 -2 -14 -19 7 -14 6
-19 -4 -19 -8 0 -11 5 -8 10 3 5 -5 19 -18 29 -13 11 -18 17 -11 13 6 -3 13 0
13 7 1 7 3 22 4 34 1 11 -3 21 -9 21 -7 0 -13 -10 -14 -21 -1 -17 1 -18 9 -6
9 13 10 13 6 0 -2 -8 -10 -14 -17 -12 -14 3 -30 -15 -30 -36 0 -7 4 -10 10 -7
5 3 18 2 27 -4 17 -9 16 -10 -2 -9 -11 0 -29 -3 -40 -7 -14 -5 -16 -4 -6 3 10
7 10 11 1 17 -15 9 -30 -13 -23 -34 4 -13 3 -14 -5 -2 -6 8 -9 23 -7 33 3 13
-4 22 -20 28 -14 5 -25 14 -25 20 0 5 -5 10 -10 10 -6 0 -9 -5 -8 -11 2 -6 -3
-14 -11 -17 -8 -2 -11 0 -8 5 3 5 0 10 -8 10 -12 0 -12 -3 -2 -15 10 -13 8
-14 -13 -8 -17 5 -20 4 -12 -2 8 -5 13 -12 13 -16 -3 -18 1 -19 10 -3 8 14 14
16 25 6 20 -16 8 -29 -27 -29 -18 0 -28 4 -24 10 3 6 -1 13 -9 16 -9 3 -16 15
-16 25 0 14 -6 18 -22 15 -13 -3 -29 -5 -36 -5 -9 -1 -10 -6 -2 -20 10 -21 -3
-40 -15 -21 -3 5 -3 10 2 10 4 0 2 4 -6 9 -25 16 -41 2 -30 -27 8 -23 7 -24
-3 -11 -12 15 -19 19 -35 19 -5 0 -1 5 7 10 12 8 11 10 -7 10 -12 0 -31 -12
-43 -27 -12 -16 -19 -22 -15 -15 3 6 1 12 -4 12 -10 0 -16 -22 -12 -43 1 -5
-3 -6 -9 -2 -6 3 -8 10 -5 15 3 5 -3 11 -12 13 -17 4 -17 5 0 6 23 1 22 23 -3
39 -16 10 -20 10 -20 -1 0 -8 -7 -14 -15 -14 -8 0 -15 4 -15 9 0 4 6 8 13 8 8
0 8 3 1 8 -16 11 -24 41 -13 47 5 4 7 11 3 16 -3 5 -10 7 -15 3 -5 -3 -7 -10
-4 -15 4 -5 0 -9 -7 -9 -9 0 -9 -3 2 -10 9 -6 10 -10 3 -10 -7 0 -16 8 -22 17
-8 16 -10 14 -16 -10 -4 -15 -14 -27 -22 -27 -9 0 -11 5 -7 13 5 7 0 6 -11 -3
-17 -14 -18 -13 -13 8 4 15 2 22 -7 22 -35 0 -17 -42 23 -54 12 -4 19 -12 16
-18 -4 -7 -9 -6 -14 2 -6 9 -11 7 -19 -6 -10 -18 -10 -18 -11 -1 0 10 -5 15
-11 12 -6 -4 -10 -1 -8 6 3 27 -1 40 -11 34 -16 -10 -12 -46 8 -62 14 -13 13
-13 -8 0 -15 9 -25 24 -24 36 1 25 -9 27 -26 6 -9 -11 -10 -15 -1 -15 8 0 6
-6 -4 -16 -9 -10 -15 -25 -12 -34 2 -9 -1 -17 -8 -17 -8 0 -11 7 -7 15 4 11 1
13 -8 7 -9 -6 -11 -4 -5 5 6 9 4 12 -6 8 -11 -4 -15 2 -16 26 0 18 1 22 4 9 5
-27 28 -36 43 -17 7 8 9 14 6 14 -4 0 -2 9 3 19 8 14 7 20 -5 25 -9 3 -12 2
-9 -4 7 -12 -3 -50 -14 -50 -4 0 -7 9 -8 20 -1 13 2 18 9 14 7 -4 8 -2 4 4 -4
7 -14 12 -22 12 -12 0 -18 11 -16 31 2 15 -54 -2 -67 -20 -13 -20 -48 -31 -37
-12 4 5 0 12 -6 14 -10 4 -10 8 2 16 8 5 18 7 22 5 4 -3 5 1 2 9 -2 7 -11 14
-19 14 -8 0 -12 -4 -9 -9 3 -4 -2 -11 -11 -14 -10 -4 -12 -10 -7 -18 15 -19
23 -66 12 -66 -6 0 -8 -5 -4 -12 4 -6 3 -8 -3 -5 -5 3 -8 20 -7 36 1 17 -2 28
-7 25 -5 -3 -10 7 -10 23 -1 28 -1 28 -8 3 -6 -24 -41 -39 -41 -18 0 6 -7 8
-15 4 -8 -3 -15 -2 -15 3 0 16 13 20 34 10 20 -10 20 -10 2 5 -26 21 -33 20
-41 -4 -3 -11 -11 -20 -16 -20 -12 0 -12 26 0 49 8 14 6 17 -11 16 -12 -1 -23
-7 -24 -14 -1 -6 0 -7 3 -1 8 17 22 1 16 -19 -4 -17 -7 -18 -31 -5 -18 9 -28
10 -33 3 -5 -8 -9 -8 -13 0 -9 14 2 33 15 26 5 -4 9 0 9 7 0 7 -12 14 -27 15
-18 1 -22 -2 -12 -8 10 -6 11 -11 2 -20 -8 -8 -6 -16 8 -30 10 -10 19 -25 19
-31 0 -7 -8 -3 -18 9 -13 17 -20 20 -32 12 -13 -9 -12 -10 3 -5 10 3 17 0 17
-8 0 -26 -13 -24 -46 6 -25 23 -31 34 -23 44 7 8 7 14 -1 19 -9 6 -14 -1 -11
-17 0 -4 -8 -12 -19 -18 -15 -8 -21 -6 -29 7 -9 16 -10 16 -11 2 0 -20 29 -34
43 -20 14 14 37 -13 37 -44 0 -15 4 -24 10 -20 6 3 10 -1 10 -9 0 -9 -8 -14
-20 -13 -11 1 -19 6 -16 12 2 6 -5 21 -15 34 -12 15 -19 18 -19 9 0 -8 6 -20
13 -28 10 -12 9 -12 -5 -1 -15 12 -18 11 -18 -3 0 -10 -5 -14 -10 -11 -8 5 -8
11 -1 19 6 7 8 16 4 19 -12 13 -23 7 -23 -12 0 -11 -5 -23 -10 -26 -6 -4 -7
-12 -3 -18 4 -7 0 -6 -10 2 -17 14 -23 32 -9 30 19 -3 26 2 13 10 -7 5 -13 20
-13 35 0 20 -5 26 -22 25 -20 0 -21 -1 -1 -9 11 -5 14 -9 8 -9 -7 -1 -13 -6
-13 -12 0 -5 4 -8 8 -5 9 5 7 -82 -2 -91 -3 -4 -6 3 -6 14 0 27 -25 36 -45 17
-8 -9 -15 -11 -15 -4 0 6 7 13 15 16 8 4 15 10 15 16 0 5 -6 6 -12 2 -10 -6
-10 -5 -1 8 14 17 8 28 -16 28 -13 0 -13 -2 -3 -9 11 -7 10 -9 -3 -14 -9 -4
-14 -3 -11 2 3 5 -1 14 -9 21 -8 7 -12 16 -9 21 3 5 0 9 -6 9 -7 0 -10 -6 -7
-14 9 -22 -19 -42 -37 -27 -11 9 -16 9 -21 0 -6 -8 -10 -7 -17 2 -7 10 -8 8
-3 -6 4 -11 8 -28 10 -38 4 -15 2 -17 -10 -7 -8 7 -13 16 -10 20 3 5 1 11 -4
14 -5 3 -7 15 -4 25 3 10 -1 22 -7 26 -9 5 -10 2 -6 -13 4 -13 1 -22 -8 -25
-8 -3 -16 -18 -19 -34 -4 -27 -4 -27 -6 5 -1 22 -6 32 -17 32 -9 0 -32 7 -51
16 -30 15 -36 15 -49 2 -13 -13 -13 -15 1 -15 8 0 15 4 15 9 0 4 4 8 9 8 4 0
8 -10 7 -22 -1 -13 5 -26 13 -29 11 -4 9 -7 -7 -11 -12 -4 -20 -3 -17 1 5 9
-45 34 -53 27 -3 -3 -11 2 -18 12 -11 16 -13 16 -31 0 -18 -16 -19 -16 -21 7
-1 19 2 23 18 20 12 -2 18 0 15 6 -4 5 -11 6 -17 3 -7 -5 -9 0 -6 14 4 13 0
26 -11 34 -15 12 -15 11 -1 -6z m2126 -62 c-6 -22 -9 -25 -17 -13 -7 12 -9 11
-9 -3 0 -10 -4 -18 -10 -18 -5 0 -10 7 -10 15 0 8 5 15 10 15 6 0 10 8 10 18
0 24 11 35 23 23 5 -5 6 -22 3 -37z m-1122 14 c-5 -8 -2 -9 10 -5 10 4 15 3
11 -3 -3 -6 -1 -10 6 -10 10 0 10 -3 2 -11 -6 -6 -9 -19 -5 -28 5 -14 4 -14
-11 -2 -15 12 -17 12 -12 -1 3 -8 1 -25 -4 -39 -5 -13 -10 -17 -11 -9 0 12 -4
11 -15 -4 -14 -19 -15 -18 -16 10 0 16 -3 23 -6 17 -2 -7 -9 -13 -15 -13 -7 0
-6 5 1 14 6 7 9 20 5 29 -3 10 2 18 15 22 12 3 26 15 31 26 6 10 13 19 16 19
3 0 2 -5 -2 -12z m-269 -8 c-3 -5 1 -10 9 -10 8 0 18 -5 22 -12 5 -8 2 -9 -11
-4 -16 6 -16 4 -4 -11 12 -15 12 -16 -3 -10 -22 8 -24 -10 -3 -33 13 -15 13
-17 0 -17 -9 0 -18 11 -21 24 -4 13 -10 23 -15 23 -5 0 -11 0 -14 0 -3 0 -5
-3 -4 -6 0 -4 -5 -11 -13 -15 -10 -7 -10 -9 2 -9 9 0 16 -9 16 -19 0 -18 -1
-18 -21 2 -13 14 -17 25 -10 29 5 4 6 8 2 8 -5 0 -2 6 6 14 8 9 24 12 37 9 20
-5 21 -4 11 15 -15 27 -14 32 5 32 8 0 12 -4 9 -10z m2565 -37 c0 -8 5 -11 10
-8 14 9 25 -24 12 -37 -8 -8 -9 -4 -5 12 4 13 2 21 -3 17 -13 -8 -38 14 -42
37 -3 17 -2 18 12 7 9 -8 16 -20 16 -28z m-3370 11 c0 -2 -9 -18 -20 -36 -20
-33 -50 -47 -50 -22 0 9 -9 13 -30 10 -30 -3 -40 7 -19 20 6 3 15 1 19 -5 5
-9 10 -8 20 4 9 11 16 12 26 4 18 -14 37 -1 31 21 -3 13 0 17 9 13 8 -3 14 -7
14 -9z m895 -2 c-3 -9 0 -12 9 -9 11 5 11 1 -1 -24 -14 -28 -33 -39 -33 -20 0
5 -10 7 -22 3 -14 -3 -19 -2 -14 6 4 7 16 12 26 12 10 0 22 5 25 10 3 6 2 10
-3 10 -5 0 -9 6 -9 13 0 8 7 14 14 14 8 0 11 -6 8 -15z m1505 8 c0 -5 -5 -10
-11 -10 -5 0 -7 5 -4 10 3 6 8 10 11 10 2 0 4 -4 4 -10z m1717 -12 c-3 -8 -6
-5 -6 6 -1 11 2 17 5 13 3 -3 4 -12 1 -19z m-3991 -18 c8 0 14 -7 14 -15 0 -8
-7 -15 -16 -15 -8 0 -13 4 -9 9 3 5 1 12 -4 15 -11 7 -23 -22 -15 -37 5 -9 4
-9 -4 -2 -9 8 -9 19 1 44 7 20 13 27 15 17 2 -9 10 -16 18 -16z m269 10 c-3
-4 2 -10 10 -14 8 -3 15 -11 15 -18 0 -9 -3 -8 -10 2 -9 13 -14 7 -11 -12 0
-5 -4 -8 -10 -8 -6 0 -9 6 -6 14 3 7 1 18 -5 24 -12 12 -1 35 13 26 5 -3 7 -9
4 -14z m971 4 c-8 -20 12 -47 27 -37 6 3 7 1 3 -6 -6 -9 -11 -9 -21 -1 -14 12
-39 5 -31 -9 3 -4 -4 -8 -15 -8 -10 -1 -19 3 -19 9 0 6 3 9 6 5 8 -8 34 18 34
33 0 6 -4 8 -10 5 -5 -3 -10 -2 -10 4 0 9 16 19 34 20 4 1 5 -6 2 -15z m300
-5 c0 -28 -47 -61 -67 -47 -12 8 -11 9 3 5 23 -8 58 31 39 43 -11 6 -10 9 5
13 10 2 19 5 19 6 1 0 1 -8 1 -20z m130 0 c14 -15 15 -20 4 -17 -16 3 -30 18
-30 31 0 11 6 8 26 -14z m429 11 c4 -6 11 -8 16 -5 5 4 12 -1 15 -9 3 -9 10
-14 14 -11 5 3 6 -5 2 -17 -5 -21 -4 -22 11 -9 23 18 22 8 -1 -12 -17 -15 -18
-15 -19 5 -1 11 -7 26 -13 32 -8 8 -9 6 -4 -9 7 -18 6 -18 -9 -6 -9 7 -17 20
-17 28 0 8 -4 11 -10 8 -5 -3 -10 -1 -10 4 0 14 17 14 25 1z m712 -5 c0 -8 -4
-15 -9 -15 -4 0 -8 7 -8 15 0 8 4 15 8 15 5 0 9 -7 9 -15z m39 -12 c-3 -8 2
-17 13 -21 16 -6 17 -9 5 -20 -12 -11 -14 -10 -14 5 0 15 -2 16 -10 3 -5 -8
-10 -10 -11 -5 0 6 -2 22 -4 37 -3 20 0 25 11 21 8 -3 13 -12 10 -20z m1224
23 c0 -2 -7 -7 -16 -10 -8 -3 -12 -2 -9 4 6 10 25 14 25 6z m-4162 -38 c3 -31
2 -32 -12 -13 -10 14 -11 24 -4 32 14 17 13 18 16 -19z m236 16 c4 -9 4 -19 1
-22 -3 -3 -5 0 -5 8 0 10 -3 10 -16 -1 -8 -7 -13 -20 -11 -30 3 -13 0 -16 -11
-12 -11 5 -13 3 -7 -8 4 -8 4 -11 0 -6 -12 11 -17 50 -6 42 9 -5 24 10 27 28
3 15 4 17 13 17 5 0 12 -7 15 -16z m182 1 c9 -8 11 -15 5 -15 -6 0 -11 -5 -11
-11 0 -5 5 -7 12 -3 7 4 8 3 4 -5 -4 -7 2 -15 16 -20 13 -6 16 -10 8 -10 -23
-1 -48 23 -55 52 -8 30 -1 34 21 12z m509 -3 c-3 -3 -11 0 -18 7 -9 10 -8 11
6 5 10 -3 15 -9 12 -12z m2588 -4 c5 -18 -17 -26 -27 -9 -3 4 -17 7 -31 6 -14
-2 -25 1 -25 6 0 6 -5 7 -12 3 -6 -4 -9 -3 -5 2 3 5 25 9 50 10 36 1 47 -3 50
-18z m53 5 c-2 -10 4 -24 13 -31 14 -11 13 -11 -6 -2 -22 10 -33 50 -14 50 5
0 8 -8 7 -17z m-3449 -15 c-3 -8 -6 -5 -6 6 -1 11 2 17 5 13 3 -3 4 -12 1 -19z
m3003 14 c17 -8 25 -32 11 -32 -5 0 -11 5 -13 12 -2 6 -12 12 -21 14 -9 1 -15
-2 -11 -7 3 -5 9 -7 13 -5 4 3 8 -1 8 -9 0 -17 -13 -20 -22 -4 -4 6 -13 8 -21
5 -11 -4 -12 -2 -1 14 12 20 30 24 57 12z m485 -2 c-3 -5 -10 -10 -16 -10 -5
0 -9 5 -9 10 0 6 7 10 16 10 8 0 12 -4 9 -10z m-4065 -35 c0 -4 -7 -4 -16 -1
-12 5 -15 2 -12 -12 3 -11 0 -19 -7 -19 -10 0 -11 7 -4 24 5 13 6 23 3 23 -3
0 -2 5 1 10 6 10 35 -11 35 -25z m493 15 c-3 -11 -9 -20 -14 -20 -5 0 -9 9 -9
20 0 11 6 20 14 20 9 0 12 -7 9 -20z m854 1 c0 -11 -5 -18 -9 -15 -4 3 -5 11
-1 19 7 21 12 19 10 -4z m1233 15 c0 -3 -4 -8 -10 -11 -5 -3 -10 -1 -10 4 0 6
5 11 10 11 6 0 10 -2 10 -4z m46 -8 c4 -6 3 -8 -3 -5 -6 4 -18 -2 -28 -13 -10
-11 -23 -20 -29 -20 -6 0 -3 5 7 11 9 5 17 17 17 24 0 18 26 20 36 3z m-1251
-8 c3 -5 1 -10 -4 -10 -6 0 -11 5 -11 10 0 6 2 10 4 10 3 0 8 -4 11 -10z
m2500 0 c-3 -6 1 -13 9 -16 9 -3 16 -13 16 -22 0 -11 -5 -10 -19 7 -18 21 -20
21 -30 4 -6 -10 -11 -15 -11 -10 0 12 24 47 33 47 4 0 5 -5 2 -10z m382 -5 c0
-8 -4 -12 -9 -9 -5 3 -6 10 -3 15 9 13 12 11 12 -6z m29 -12 c-10 -10 -19 5
-10 18 6 11 8 11 12 0 2 -7 1 -15 -2 -18z m-3846 13 c0 -3 -4 -8 -10 -11 -5
-3 -10 -1 -10 4 0 6 5 11 10 11 6 0 10 -2 10 -4z m635 -6 c-3 -5 -14 -10 -23
-9 -14 0 -13 2 3 9 27 11 27 11 20 0z m545 0 c0 -5 -2 -10 -4 -10 -3 0 -8 5
-11 10 -3 6 -1 10 4 10 6 0 11 -4 11 -10z m885 -28 c-1 -1 -10 0 -19 4 -13 5
-14 9 -4 21 10 13 13 13 19 -4 3 -10 5 -19 4 -21z m1285 32 c0 -8 -19 -13 -24
-6 -3 5 1 9 9 9 8 0 15 -2 15 -3z m150 -4 c0 -5 -2 -10 -4 -10 -3 0 -8 5 -11
10 -3 6 -1 10 4 10 6 0 11 -4 11 -10z m140 6 c0 -3 -4 -8 -10 -11 -5 -3 -10
-1 -10 4 0 6 5 11 10 11 6 0 10 -2 10 -4z m57 -16 c4 -12 3 -13 -5 -1 -5 7
-14 11 -20 7 -6 -3 -13 -2 -16 2 -3 5 4 9 16 8 12 0 23 -8 25 -16z m78 10 c-3
-5 -12 -10 -18 -10 -7 0 -6 4 3 10 19 12 23 12 15 0z m432 -5 c0 -8 -4 -12 -9
-9 -5 3 -6 10 -3 15 9 13 12 11 12 -6z m-4507 -5 c0 -5 -5 -10 -11 -10 -5 0
-7 5 -4 10 3 6 8 10 11 10 2 0 4 -4 4 -10z m51 -13 c-10 -9 -11 -8 -5 6 3 10
9 15 12 12 3 -3 0 -11 -7 -18z m579 19 c0 -2 -9 -6 -20 -9 -11 -3 -18 -1 -14
4 5 9 34 13 34 5z m950 -11 c0 -8 -2 -15 -4 -15 -2 0 -6 7 -10 15 -3 8 -1 15
4 15 6 0 10 -7 10 -15z m490 6 c0 -5 -10 -11 -22 -14 -22 -6 -22 -6 -4 8 23
17 26 18 26 6z m139 -25 c-3 -3 -11 5 -18 17 -13 21 -12 21 5 5 10 -10 16 -20
13 -22z m1121 30 c0 -3 -4 -8 -10 -11 -5 -3 -10 -1 -10 4 0 6 5 11 10 11 6 0
10 -2 10 -4z m30 -6 c0 -5 -5 -10 -11 -10 -5 0 -7 5 -4 10 3 6 8 10 11 10 2 0
4 -4 4 -10z m146 -5 c-1 -8 -5 -17 -8 -21 -5 -4 -4 16 1 34 3 9 9 -1 7 -13z
m969 5 c3 -5 1 -10 -4 -10 -6 0 -11 5 -11 10 0 6 2 10 4 10 3 0 8 -4 11 -10z
m-4744 -15 c0 -5 -5 -11 -12 -14 -7 -2 -9 1 -4 9 6 10 4 12 -9 7 -11 -4 -15
-3 -11 4 8 12 36 8 36 -6z m1646 0 c0 -8 -4 -12 -9 -9 -5 3 -6 10 -3 15 9 13
12 11 12 -6z m163 -18 c-10 -9 -11 -9 -6 1 5 7 1 12 -11 13 -16 0 -16 1 2 8
23 10 33 -5 15 -22z m281 24 c-8 -5 -10 -14 -6 -21 5 -9 4 -11 -3 -6 -18 11
-14 36 6 36 13 0 14 -2 3 -9z m328 -12 c-16 -10 -23 -4 -14 10 3 6 11 8 17 5
6 -4 5 -9 -3 -15z m982 -2 c-10 -9 -11 -8 -5 6 3 10 9 15 12 12 3 -3 0 -11 -7
-18z m169 13 c0 -5 -2 -10 -4 -10 -3 0 -8 5 -11 10 -3 6 -1 10 4 10 6 0 11 -4
11 -10z m820 -34 c0 -6 -5 -3 -11 7 -6 9 -14 15 -18 13 -4 -3 -8 1 -8 9 0 13
4 12 19 -2 10 -9 18 -21 18 -27z m310 29 c11 -13 10 -14 -4 -9 -9 3 -16 10
-16 15 0 13 6 11 20 -6z m-3736 -11 c3 -8 2 -12 -4 -9 -6 3 -10 10 -10 16 0
14 7 11 14 -7z m1411 -2 c-3 -3 -11 0 -18 7 -9 10 -8 11 6 5 10 -3 15 -9 12
-12z m410 9 c3 -5 2 -12 -3 -15 -5 -3 -9 1 -9 9 0 17 3 19 12 6z m409 1 c3 -5
-1 -9 -9 -9 -8 0 -12 4 -9 9 3 4 7 8 9 8 2 0 6 -4 9 -8z m56 -7 c7 -8 9 -15 6
-15 -4 0 -14 7 -22 15 -9 8 -11 15 -6 15 5 0 15 -7 22 -15z m105 5 c-3 -5 -11
-10 -16 -10 -6 0 -7 5 -4 10 3 6 11 10 16 10 6 0 7 -4 4 -10z m345 6 c0 -3 -4
-8 -10 -11 -5 -3 -10 -1 -10 4 0 6 5 11 10 11 6 0 10 -2 10 -4z m534 -12 c3
-8 2 -12 -4 -9 -6 3 -10 10 -10 16 0 14 7 11 14 -7z m-3077 0 c-3 -3 -12 -4
-19 -1 -8 3 -5 6 6 6 11 1 17 -2 13 -5z m3663 -9 c0 -2 -9 -3 -19 -2 -11 0
-18 5 -15 9 4 6 34 0 34 -7z"/>
<path d="M16470 49887 c-20 -15 -20 -42 0 -42 8 0 14 6 12 14 -1 7 3 19 9 27
14 17 0 18 -21 1z"/>
<path d="M15350 49851 c0 -5 7 -15 17 -22 15 -13 15 -12 4 9 -12 23 -21 28
-21 13z"/>
<path d="M16360 49971 c0 -10 19 -25 25 -20 1 2 -3 10 -11 17 -8 7 -14 8 -14
3z"/>
<path d="M16591 49958 c0 -16 2 -18 6 -8 3 8 11 18 17 22 7 5 4 8 -6 8 -12 0
-18 -7 -17 -22z"/>
<path d="M17302 49971 c-11 -7 -11 -9 2 -14 10 -4 16 -1 16 8 0 17 -1 17 -18
6z"/>
<path d="M17396 49965 c4 -8 8 -15 10 -15 2 0 4 7 4 15 0 8 -4 15 -10 15 -5 0
-7 -7 -4 -15z"/>
<path d="M18062 49968 c-17 -17 -15 -25 8 -31 11 -3 28 2 38 11 10 10 13 14 7
10 -15 -9 -55 -6 -49 4 3 5 10 6 15 3 5 -4 9 -1 9 4 0 14 -13 14 -28 -1z"/>
<path d="M18225 49970 c-3 -5 -1 -10 4 -10 6 0 11 5 11 10 0 6 -2 10 -4 10 -3
0 -8 -4 -11 -10z"/>
<path d="M18341 49964 c0 -11 3 -14 6 -6 3 7 2 16 -1 19 -3 4 -6 -2 -5 -13z"/>
<path d="M18605 49953 c2 -24 -9 -31 -20 -13 -3 6 -11 10 -16 10 -6 0 -8 -4
-5 -9 4 -5 0 -12 -6 -15 -7 -3 -3 -3 9 0 18 4 22 2 17 -10 -3 -9 -11 -16 -18
-17 -14 -1 24 -17 43 -18 11 -1 9 4 -5 15 -10 8 -13 13 -6 9 7 -4 11 -1 10 6
-2 6 3 14 11 17 9 3 11 0 6 -8 -5 -8 -4 -11 3 -6 5 3 13 0 15 -6 3 -8 6 -6 6
5 1 9 -3 17 -9 17 -5 0 -10 8 -10 18 0 14 -2 14 -9 3 -7 -12 -10 -11 -14 5 -3
13 -4 12 -2 -3z"/>
<path d="M19363 49961 c-10 -16 -9 -19 4 -17 9 2 17 10 19 19 3 23 -8 21 -23
-2z"/>
<path d="M19472 49967 c-6 -7 -7 -19 -3 -26 6 -9 10 -5 13 13 6 30 5 31 -10
13z"/>
<path d="M14630 49960 c-13 -8 -12 -10 3 -10 9 0 17 5 17 10 0 12 -1 12 -20 0z"/>
<path d="M15700 49960 c-9 -6 -10 -10 -3 -10 6 0 15 5 18 10 8 12 4 12 -15 0z"/>
<path d="M15767 49950 c2 -9 10 -17 17 -17 7 0 11 8 9 17 -2 9 -10 17 -17 17
-7 0 -11 -8 -9 -17z"/>
<path d="M15806 49959 c3 -5 9 -7 14 -4 4 3 11 0 13 -5 3 -6 4 -5 3 1 -1 7
-10 13 -19 15 -9 1 -15 -2 -11 -7z"/>
<path d="M16505 49960 c-3 -5 -1 -10 4 -10 6 0 11 5 11 10 0 6 -2 10 -4 10 -3
0 -8 -4 -11 -10z"/>
<path d="M17853 49953 c0 -8 18 -23 39 -34 21 -11 38 -24 38 -30 0 -6 -5 -7
-11 -4 -17 11 -47 -28 -39 -50 4 -13 9 -15 14 -7 4 7 5 16 2 20 -2 4 -1 14 3
21 7 10 13 11 27 2 17 -9 17 -10 2 -11 -10 0 -18 -4 -18 -9 0 -16 42 1 47 18
3 11 15 17 36 16 20 -1 38 6 48 19 18 22 39 14 32 -13 -5 -21 25 -34 50 -20
10 6 18 5 22 -1 9 -14 25 -2 19 13 -3 9 -20 12 -47 11 -36 -2 -39 -1 -20 8 12
6 24 17 28 26 4 12 2 12 -8 4 -8 -7 -17 -9 -20 -5 -4 3 -7 1 -7 -7 0 -9 -3
-10 -13 -2 -7 6 -24 9 -38 6 -20 -5 -21 -4 -9 6 13 10 12 11 -3 6 -10 -3 -21
-6 -23 -6 -2 0 -4 -5 -4 -11 0 -5 4 -8 9 -4 5 3 12 1 15 -4 3 -5 -6 -11 -20
-14 -18 -3 -24 -1 -20 9 3 8 2 13 -2 11 -4 -1 -7 3 -7 8 0 6 4 9 8 7 5 -1 5 3
2 9 -5 7 -12 6 -24 -5 -13 -13 -13 -18 -3 -25 10 -6 10 -10 -3 -21 -15 -12
-21 -4 -16 23 1 5 -4 5 -10 1 -9 -5 -10 -2 -6 9 3 10 2 17 -3 17 -6 0 -10 -5
-10 -11 0 -5 -5 -7 -11 -4 -7 5 -5 13 5 24 14 15 14 18 2 18 -8 0 -14 -5 -13
-10 1 -5 -4 -12 -11 -14 -7 -3 -10 1 -7 9 3 8 0 15 -8 15 -7 0 -14 -7 -14 -14z"/>
<path d="M18165 49931 c0 -32 3 -36 25 -36 14 1 31 -6 38 -15 10 -12 10 -10 1
13 -13 29 -24 34 -35 16 -12 -20 -27 7 -15 29 8 15 7 21 -2 25 -9 3 -13 -6
-12 -32z"/>
<path d="M18380 49956 c7 -7 13 -7 20 0 6 6 3 10 -10 10 -13 0 -16 -4 -10 -10z"/>
<path d="M18530 49960 c0 -5 5 -10 11 -10 5 0 7 5 4 10 -3 6 -8 10 -11 10 -2
0 -4 -4 -4 -10z"/>
<path d="M18743 49956 c0 -6 13 -12 29 -13 16 -1 26 2 24 6 -9 13 -53 19 -53
7z"/>
<path d="M19049 49968 c-7 -24 -5 -38 4 -35 15 5 22 37 8 37 -6 0 -11 -1 -12
-2z"/>
<path d="M14818 49953 c6 -2 18 -2 25 0 6 3 1 5 -13 5 -14 0 -19 -2 -12 -5z"/>
<path d="M15605 49950 c-11 -5 -18 -9 -15 -10 25 -7 37 -6 37 6 0 8 -1 14 -1
13 -1 0 -10 -4 -21 -9z"/>
<path d="M16685 49950 c-3 -5 -1 -10 4 -10 6 0 11 5 11 10 0 6 -2 10 -4 10 -3
0 -8 -4 -11 -10z"/>
<path d="M16952 49935 c3 -28 11 -24 13 5 1 11 -2 20 -7 20 -4 0 -7 -11 -6
-25z"/>
<path d="M18264 49948 c3 -10 1 -18 -3 -18 -5 0 -11 -7 -15 -15 -3 -9 0 -15 8
-15 18 0 26 34 14 51 -8 11 -9 10 -4 -3z"/>
<path d="M18910 49940 c0 -14 -5 -18 -17 -13 -12 4 -15 3 -8 -4 6 -6 21 -14
35 -18 17 -4 21 -3 11 3 -8 6 -12 19 -8 31 3 12 1 21 -4 21 -5 0 -9 -9 -9 -20z"/>
<path d="M19396 49935 c-20 -31 -20 -42 0 -42 10 0 14 7 11 17 -2 10 0 25 5
34 14 25 2 19 -16 -9z"/>
<path d="M19636 49948 c3 -5 10 -6 15 -3 13 9 11 12 -6 12 -8 0 -12 -4 -9 -9z"/>
<path d="M15015 49940 c3 -5 8 -10 11 -10 2 0 4 5 4 10 0 6 -5 10 -11 10 -5 0
-7 -4 -4 -10z"/>
<path d="M15240 49935 c-11 -13 -10 -14 4 -9 9 3 16 10 16 15 0 13 -6 11 -20
-6z"/>
<path d="M15552 49930 c0 -14 2 -19 5 -12 2 6 2 18 0 25 -3 6 -5 1 -5 -13z"/>
<path d="M17250 49941 c0 -7 -5 -9 -12 -5 -7 4 -8 3 -4 -4 4 -7 3 -12 -3 -12
-5 0 -12 6 -14 13 -4 9 -6 9 -6 0 -1 -6 4 -15 10 -19 13 -8 46 22 36 32 -4 4
-7 2 -7 -5z"/>
<path d="M17673 49942 c-9 -6 -7 -11 7 -19 15 -10 19 -9 24 4 4 9 4 18 1 21
-3 3 -5 0 -5 -6 0 -7 -5 -12 -11 -12 -5 0 -7 5 -4 10 7 12 4 12 -12 2z"/>
<path d="M17725 49930 c-20 -22 -7 -27 25 -10 13 7 21 7 25 0 4 -6 11 -8 16
-4 5 3 7 10 3 15 -3 5 -9 7 -14 4 -5 -3 -11 -1 -15 5 -9 15 -20 12 -40 -10z"/>
<path d="M19285 49940 c3 -5 12 -7 20 -3 21 7 19 13 -6 13 -11 0 -18 -4 -14
-10z"/>
<path d="M14760 49922 c0 -9 -9 -23 -21 -30 -11 -7 -19 -18 -17 -24 4 -12 38
-21 38 -10 0 4 4 24 9 45 5 21 5 37 0 37 -5 0 -9 -8 -9 -18z"/>
<path d="M15699 49938 c-6 -21 -5 -37 2 -32 5 3 9 0 9 -6 0 -6 5 -8 10 -5 15
9 12 25 -6 25 -8 0 -12 5 -9 10 3 6 4 10 1 10 -3 0 -6 -1 -7 -2z"/>
<path d="M15900 49932 c0 -5 9 -17 20 -27 11 -10 20 -24 20 -32 0 -7 5 -13 10
-13 18 0 10 29 -15 55 -27 27 -35 30 -35 17z"/>
<path d="M16556 49923 c-6 -14 -5 -15 5 -6 7 7 10 15 7 18 -3 3 -9 -2 -12 -12z"/>
<path d="M16835 49931 c-3 -5 -1 -12 5 -16 6 -4 7 -11 4 -17 -4 -7 -2 -8 5 -4
8 6 9 12 2 20 -6 7 -8 16 -4 19 3 4 4 7 0 7 -3 0 -8 -4 -12 -9z"/>
<path d="M17153 49933 c4 -3 5 -9 1 -14 -7 -12 17 -11 36 1 13 8 13 10 -2 10
-9 0 -22 2 -30 3 -7 2 -10 2 -5 0z"/>
<path d="M17390 49936 c0 -2 7 -7 16 -10 8 -3 12 -2 9 4 -6 10 -25 14 -25 6z"/>
<path d="M17490 49930 c-9 -6 -10 -10 -3 -10 6 0 15 5 18 10 8 12 4 12 -15 0z"/>
<path d="M18355 49930 c-3 -5 -1 -10 4 -10 6 0 11 5 11 10 0 6 -2 10 -4 10 -3
0 -8 -4 -11 -10z"/>
<path d="M18850 49930 c0 -5 5 -10 11 -10 5 0 7 5 4 10 -3 6 -8 10 -11 10 -2
0 -4 -4 -4 -10z"/>
<path d="M19110 49931 c0 -7 -4 -10 -8 -7 -5 3 -9 -1 -9 -9 0 -8 4 -15 8 -15
9 0 21 31 14 38 -3 3 -5 0 -5 -7z"/>
<path d="M19651 49918 c-13 -20 -12 -22 1 -11 8 7 18 10 22 6 4 -4 4 0 0 10
-8 21 -6 21 -23 -5z"/>
<path d="M17276 49918 c3 -4 9 -8 15 -8 5 0 9 4 9 8 0 5 -7 9 -15 9 -8 0 -12
-4 -9 -9z"/>
<path d="M19318 49918 c5 -5 19 -5 33 1 22 8 22 9 -9 9 -19 -1 -29 -5 -24 -10z"/>
<path d="M19435 49920 c5 -8 -22 -34 -45 -43 -10 -3 -7 -6 8 -6 12 -1 25 6 29
15 3 9 15 19 26 23 20 8 20 8 -1 13 -12 4 -20 3 -17 -2z"/>
<path d="M16591 49916 c2 -2 14 -8 26 -14 17 -9 22 -9 27 3 4 11 -2 15 -26 15
-17 0 -29 -2 -27 -4z"/>
<path d="M17454 49909 c-4 -7 -3 -9 4 -5 5 3 12 0 15 -6 2 -7 7 -10 11 -7 4 3
0 12 -8 18 -11 9 -16 9 -22 0z"/>
<path d="M18130 49910 c0 -5 5 -10 10 -10 6 0 10 5 10 10 0 6 -4 10 -10 10 -5
0 -10 -4 -10 -10z"/>
<path d="M19065 49910 c3 -5 8 -10 11 -10 2 0 4 5 4 10 0 6 -5 10 -11 10 -5 0
-7 -4 -4 -10z"/>
<path d="M19200 49910 c0 -5 5 -10 10 -10 6 0 10 5 10 10 0 6 -4 10 -10 10 -5
0 -10 -4 -10 -10z"/>
<path d="M17235 49900 c-17 -7 -17 -9 -2 -9 9 -1 17 -5 17 -11 0 -5 4 -10 8
-10 4 0 8 9 8 20 0 22 -2 23 -31 10z"/>
<path d="M17733 49902 c-7 -4 -9 -13 -5 -19 6 -9 11 -6 20 7 13 21 6 26 -15
12z"/>
<path d="M17426 49893 c-12 -12 -6 -18 19 -18 14 0 25 1 25 2 0 7 -38 21 -44
16z"/>
<path d="M18236 49860 c-16 -5 -17 -8 -4 -12 16 -7 45 7 32 14 -5 3 -18 2 -28
-2z"/>
<path d="M18643 38619 c-18 -5 -43 -24 -57 -42 -19 -25 -8510 -14545 -8629
-14755 -40 -71 -42 -140 -7 -199 30 -50 484 -420 532 -434 41 -11 98 4 125 33
30 34 8645 14777 8661 14822 16 48 9 99 -21 148 -18 30 -373 328 -483 406 -36
26 -80 33 -121 21z"/>
<path d="M32156 30259 c-216 -19 -412 -75 -601 -169 -164 -83 -288 -173 -430
-315 -353 -351 -580 -813 -662 -1345 -22 -146 -25 -597 -5 -735 44 -295 120
-538 242 -780 313 -619 757 -965 1350 -1049 470 -66 908 14 1258 232 120 75
194 133 306 241 149 146 260 290 373 486 56 97 133 252 133 267 0 11 -356 229
-384 235 -6 2 -33 -38 -61 -89 -73 -134 -191 -311 -273 -408 -189 -226 -480
-395 -802 -465 -116 -25 -364 -31 -489 -11 -563 89 -1013 575 -1145 1236 -23
115 -46 309 -46 388 l0 32 1666 0 1667 0 -7 133 c-35 662 -233 1162 -621 1575
-307 326 -683 505 -1139 542 -144 11 -187 11 -330 -1z m405 -525 c276 -47 541
-186 745 -389 184 -184 301 -401 390 -723 19 -69 34 -129 34 -134 0 -4 -621
-8 -1380 -8 -759 0 -1380 3 -1380 8 0 26 87 288 130 388 121 287 271 481 500
645 147 105 334 183 511 213 118 20 334 20 450 0z"/>
<path d="M68619 30260 c-345 -33 -638 -159 -906 -389 -100 -87 -242 -245 -326
-364 -34 -49 -67 -96 -74 -105 -10 -14 -12 63 -13 371 l0 387 -235 0 -235 0 0
-2875 0 -2875 235 0 235 0 2 1129 3 1129 80 -100 c314 -396 695 -633 1131
-704 155 -25 410 -23 566 5 406 72 770 292 1060 642 285 344 453 736 520 1209
20 147 17 575 -6 725 -64 420 -226 795 -481 1110 -101 125 -301 316 -415 397
-198 141 -454 249 -683 288 -134 22 -340 32 -458 20z m407 -539 c296 -74 554
-232 744 -456 343 -405 498 -968 414 -1505 -54 -347 -212 -693 -431 -943 -213
-243 -507 -412 -807 -463 -153 -26 -374 -16 -526 24 -334 87 -641 298 -839
577 -75 107 -178 313 -221 444 -127 389 -127 887 2 1281 76 235 210 458 384
639 198 207 395 327 639 390 132 34 191 40 380 36 138 -3 199 -8 261 -24z"/>
<path d="M23711 30063 c-65 -213 -1231 -4103 -1231 -4108 0 -3 110 -5 245 -5
135 0 245 2 245 5 0 10 902 3071 909 3083 4 7 215 -441 496 -1050 268 -585
589 -1282 713 -1550 l224 -488 42 0 41 0 710 1550 c391 852 713 1546 717 1542
3 -4 210 -698 459 -1542 249 -844 455 -1538 459 -1543 3 -4 115 -6 247 -5
l240 3 -626 2100 -626 2100 -66 3 -65 3 -740 -1643 c-408 -904 -745 -1641
-750 -1639 -5 3 -342 741 -749 1640 l-740 1636 -62 3 -62 3 -30 -98z"/>
<path d="M36810 28055 l0 -2105 240 0 240 0 0 1015 0 1015 1075 0 1075 0 0
-1015 0 -1015 235 0 235 0 0 2105 0 2105 -235 0 -235 0 0 -835 0 -835 -1075 0
-1075 0 0 835 0 835 -240 0 -240 0 0 -2105z"/>
<path d="M42650 28055 l0 -2105 28 0 c24 0 196 193 1377 1545 l1350 1545 3
-1545 2 -1545 235 0 235 0 0 2106 c0 1977 -1 2105 -17 2102 -9 -2 -626 -701
-1370 -1553 -744 -852 -1357 -1551 -1363 -1553 -7 -3 -10 497 -10 1552 l0
1556 -235 0 -235 0 0 -2105z"/>
<path d="M49359 28288 l-714 -1873 -223 -3 -222 -2 0 -510 0 -510 230 0 230 0
0 280 0 280 1535 0 1535 0 0 -265 0 -265 225 0 225 0 0 495 0 495 -222 2 -223
3 -709 1873 -710 1872 -121 0 -121 0 -715 -1872z m1354 -428 l515 -1445 -1061
-3 c-583 -1 -1061 -1 -1063 1 -2 2 937 2537 1052 2840 15 38 30 65 34 60 5 -4
240 -658 523 -1453z"/>
<path d="M54080 30155 c0 -3 385 -424 855 -936 470 -512 855 -934 855 -937 0
-4 -417 -529 -925 -1166 -509 -638 -925 -1161 -925 -1163 0 -2 134 -3 298 -3
l298 0 799 1020 799 1019 132 -127 132 -127 1 -892 1 -893 240 0 240 0 0 889
0 889 138 131 c103 98 139 127 147 118 6 -7 367 -466 803 -1020 l793 -1007
301 0 c239 0 298 3 290 13 -6 6 -429 531 -941 1166 l-930 1154 122 131 c68 72
440 471 827 886 386 415 726 779 754 808 l51 52 -290 -2 -290 -3 -880 -925
c-483 -509 -882 -926 -887 -928 -4 -2 -8 415 -8 927 l0 931 -240 0 -240 0 -2
-932 -3 -931 -875 931 -875 932 -282 0 c-156 0 -283 -2 -283 -5z"/>
<path d="M61190 29910 l0 -250 340 0 340 0 0 -1856 0 -1856 718 5 c674 4 724
6 827 25 393 75 650 262 824 602 102 197 144 381 144 625 0 379 -117 680 -363
939 -251 264 -505 331 -1302 343 l-388 6 0 833 0 834 -570 0 -570 0 0 -250z
m1895 -1900 c261 -25 415 -78 532 -185 110 -99 198 -258 234 -420 20 -90 17
-313 -4 -410 -64 -281 -249 -458 -559 -534 -139 -34 -238 -41 -605 -41 l-353
0 0 800 0 800 323 0 c177 0 372 -5 432 -10z"/>
</g>
</svg>
